<svg viewBox="0 0 28 28" xmlns="http://www.w3.org/2000/svg"><path d="M14.883 19.396s.325-.036.49-.218c.154-.167.15-.48.15-.48s-.023-1.468.648-1.684c.66-.213 1.51 1.418 2.408 2.046.68.474 1.197.37 1.197.37l2.404-.034s1.256-.08.66-1.084c-.05-.082-.348-.743-1.788-2.102-1.507-1.423-1.305-1.192.51-3.653 1.106-1.498 1.548-2.412 1.41-2.804-.132-.373-.945-.275-.945-.275l-2.706.017s-.2-.028-.35.063c-.144.088-.238.295-.238.295s-.428 1.16-1 2.146c-1.204 2.08-1.686 2.19-1.883 2.06-.46-.3-.345-1.21-.345-1.855 0-2.017.3-2.857-.586-3.075-.295-.072-.512-.12-1.264-.128-.966-.01-1.783.003-2.246.234-.308.153-.546.495-.4.514.178.025.583.11.798.41.277.382.268 1.244.268 1.244s.16 2.373-.373 2.668c-.365.202-.865-.21-1.94-2.098-.55-.967-.966-2.036-.966-2.036s-.08-.2-.223-.306c-.173-.13-.416-.17-.416-.17l-2.57.016s-.388.01-.53.182c-.125.152-.01.466-.01.466s2.014 4.79 4.294 7.202c2.09 2.214 4.465 2.068 4.465 2.068h1.076z" fill="#FFF" fill-rule="evenodd"/></svg>
