<svg id="dd660c5b-7ea8-40ca-85bd-07bfe8243c93" data-name="Слой 1" xmlns="http://www.w3.org/2000/svg" viewBox="0 0 17.81715 22">
  <title>Безымянный-1</title>
  <path d="M17.81715,8.85667a8.42754,8.42754,0,0,1-1.83333,5.24814c-1.283,1.58191-2.64087,3.1032-3.9721,4.64573-.84191.97554-1.69293,1.94324-2.54393,2.91089-.39712.45155-.71861.45035-1.11124.00287C6.50132,19.55,4.66225,17.42117,2.78578,15.32587A11.51693,11.51693,0,0,1,.83986,12.6052,8.87585,8.87585,0,1,1,17.57732,7.029C17.697,7.63031,17.73912,8.24706,17.81715,8.85667Z" style="fill: #c41230"/>
  <path d="M8.92152,5.05572a3.79843,3.79843,0,1,1-3.82212,3.78A3.8089,3.8089,0,0,1,8.92152,5.05572Z" style="fill: #fff"/>
</svg>
